<svg width="21" height="24" viewBox="0 0 21 24" fill="none" xmlns="http://www.w3.org/2000/svg">
<path fill-rule="evenodd" clip-rule="evenodd" d="M12.9298 3.64082C12.9763 3.4328 13.0004 3.21842 13.0004 3.00024C13.0004 1.34323 11.657 0.000244141 10.0004 0.000244141C8.34313 0.000244141 7.00041 1.34296 7.00041 3.00024C7.00041 3.21839 7.02451 3.43274 7.07099 3.64074C4.73686 4.71801 3.09619 7.04268 3.00437 9.75934L2.99385 10.3891C2.93789 12.0732 2.51918 13.726 1.76399 15.2355L0.105832 18.5528C-0.226515 19.2177 0.256984 19.9999 1.00031 19.9999H6.00061C6.00061 22.2092 7.79133 23.9999 10.0006 23.9999C12.2099 23.9999 14.0006 22.2092 14.0006 19.9999H19.0003C19.7436 19.9999 20.2271 19.2177 19.8948 18.5528L18.2368 15.2358C17.4815 13.726 17.0627 12.0732 17.0068 10.3891L16.9963 9.75934C16.9044 7.04275 15.2638 4.71813 12.9298 3.64082ZM10.9978 3.07051C10.9995 3.04721 11.0004 3.02378 11.0004 3.00024C11.0004 2.44795 10.5526 2.00024 10.0004 2.00024C9.4477 2.00024 9.00041 2.44753 9.00041 3.00024C9.00041 3.02377 9.00129 3.04719 9.00304 3.07048C9.32878 3.024 9.66175 2.99994 10.0003 2.99994C10.339 2.99994 10.672 3.024 10.9978 3.07051ZM11.2155 5.14874C11.2809 5.17414 11.3481 5.19229 11.4161 5.20334C13.4213 5.79458 14.9029 7.60952 14.9957 9.78311L15.0069 10.4252C15.0684 12.4076 15.5592 14.3537 16.448 16.1304L17.3825 17.9999H2.61813L3.55279 16.1301C4.44146 14.3537 4.93223 12.4076 4.99372 10.4252L5.00493 9.78311C5.09775 7.6096 6.57918 5.79473 8.58431 5.20341C8.65255 5.19235 8.72005 5.17413 8.78567 5.1486C9.17454 5.0515 9.58143 4.99994 10.0003 4.99994C10.4194 4.99994 10.8265 5.05155 11.2155 5.14874ZM12.0006 19.9999H8.00061C8.00061 21.1047 8.8959 21.9999 10.0006 21.9999C11.1053 21.9999 12.0006 21.1047 12.0006 19.9999Z" fill="#406A76"/>
</svg>
